<?xml version="1.0" encoding="UTF-8" standalone="no"?>
<svg
   xmlns:dc="http://purl.org/dc/elements/1.1/"
   xmlns:cc="http://creativecommons.org/ns#"
   xmlns:rdf="http://www.w3.org/1999/02/22-rdf-syntax-ns#"
   xmlns:svg="http://www.w3.org/2000/svg"
   xmlns="http://www.w3.org/2000/svg"
   xmlns:sodipodi="http://sodipodi.sourceforge.net/DTD/sodipodi-0.dtd"
   xmlns:inkscape="http://www.inkscape.org/namespaces/inkscape"
   inkscape:version="0.92.4 (5da689c313, 2019-01-14)"
   sodipodi:docname="Zenetti_logo_sized_colored.svg"
   viewBox="0 0 284.58615 421.94162"
   height="421.94162"
   width="284.58615"
   id="svg833"
   version="1.1">
  <metadata
     id="metadata839">
    <rdf:RDF>
      <cc:Work
         rdf:about="">
        <dc:format>image/svg+xml</dc:format>
        <dc:type
           rdf:resource="http://purl.org/dc/dcmitype/StillImage" />
        <dc:title></dc:title>
      </cc:Work>
    </rdf:RDF>
  </metadata>
  <defs
     id="defs837">
    <inkscape:path-effect
       is_visible="true"
       id="path-effect1032"
       effect="spiro" />
    <inkscape:path-effect
       is_visible="true"
       id="path-effect1028"
       effect="spiro" />
    <inkscape:path-effect
       is_visible="true"
       id="path-effect1022"
       effect="spiro" />
    <inkscape:path-effect
       is_visible="true"
       id="path-effect1018"
       effect="spiro" />
    <inkscape:path-effect
       is_visible="true"
       id="path-effect980"
       effect="spiro" />
    <inkscape:path-effect
       is_visible="true"
       id="path-effect976"
       effect="spiro" />
    <inkscape:path-effect
       is_visible="true"
       id="path-effect970"
       effect="spiro" />
    <inkscape:path-effect
       is_visible="true"
       id="path-effect966"
       effect="spiro" />
    <inkscape:path-effect
       is_visible="true"
       id="path-effect950"
       effect="spiro" />
    <inkscape:path-effect
       is_visible="true"
       id="path-effect946"
       effect="spiro" />
    <inkscape:path-effect
       is_visible="true"
       id="path-effect932"
       effect="spiro" />
    <inkscape:path-effect
       is_visible="true"
       id="path-effect928"
       effect="spiro" />
    <inkscape:path-effect
       is_visible="true"
       id="path-effect924"
       effect="spiro" />
    <inkscape:path-effect
       is_visible="true"
       id="path-effect920"
       effect="spiro" />
    <inkscape:path-effect
       is_visible="true"
       id="path-effect916"
       effect="spiro" />
    <inkscape:path-effect
       is_visible="true"
       id="path-effect912"
       effect="spiro" />
    <inkscape:path-effect
       is_visible="true"
       id="path-effect908"
       effect="spiro" />
    <inkscape:path-effect
       is_visible="true"
       id="path-effect904"
       effect="spiro" />
    <inkscape:path-effect
       is_visible="true"
       id="path-effect900"
       effect="spiro" />
    <inkscape:path-effect
       is_visible="true"
       id="path-effect894"
       effect="spiro" />
    <inkscape:path-effect
       is_visible="true"
       id="path-effect890"
       effect="spiro" />
    <inkscape:path-effect
       is_visible="true"
       id="path-effect886"
       effect="spiro" />
    <inkscape:path-effect
       is_visible="true"
       id="path-effect876"
       effect="spiro" />
    <inkscape:path-effect
       is_visible="true"
       id="path-effect872"
       effect="spiro" />
    <inkscape:path-effect
       is_visible="true"
       id="path-effect868"
       effect="spiro" />
    <inkscape:path-effect
       is_visible="true"
       id="path-effect864"
       effect="spiro" />
    <inkscape:path-effect
       is_visible="true"
       id="path-effect860"
       effect="spiro" />
    <inkscape:path-effect
       is_visible="true"
       id="path-effect856"
       effect="spiro" />
    <inkscape:path-effect
       is_visible="true"
       id="path-effect852"
       effect="spiro" />
    <inkscape:path-effect
       is_visible="true"
       id="path-effect848"
       effect="spiro" />
    <inkscape:path-effect
       effect="spiro"
       id="path-effect856-3"
       is_visible="true" />
    <inkscape:path-effect
       effect="spiro"
       id="path-effect860-0"
       is_visible="true" />
    <inkscape:path-effect
       effect="spiro"
       id="path-effect852-0"
       is_visible="true" />
    <inkscape:path-effect
       effect="spiro"
       id="path-effect872-5"
       is_visible="true" />
  </defs>
  <sodipodi:namedview
     inkscape:current-layer="layer1"
     inkscape:window-maximized="1"
     inkscape:window-y="-8"
     inkscape:window-x="1912"
     inkscape:cy="311.90004"
     inkscape:cx="-35.257187"
     inkscape:zoom="1.5752899"
     showgrid="false"
     id="namedview835"
     inkscape:window-height="1377"
     inkscape:window-width="2560"
     inkscape:pageshadow="2"
     inkscape:pageopacity="0"
     guidetolerance="10"
     gridtolerance="10"
     objecttolerance="10"
     borderopacity="1"
     inkscape:document-rotation="0"
     bordercolor="#666666"
     pagecolor="#ffffff"
     inkscape:pagecheckerboard="true" />
  <g
     transform="translate(-306.13211,1.795496)"
     style="display:inline"
     inkscape:label="kontur"
     id="layer1"
     inkscape:groupmode="layer">
    <path
       transform="matrix(1,0,0,0.9065776,0,13.96689)"
       inkscape:original-d="m 355.5737,149.50258 c 1.01115,-24.57938 2.0213,-49.15976 3.03045,-73.741139 1.00916,-24.581379 10.77596,-23.569226 16.16244,-35.355339 5.38648,-11.786113 100.34282,28.958706 150.51273,43.436559 50.16991,14.477853 1.34787,30.305579 2.02031,45.456869 0.67243,15.15128 10e-4,3.36817 0,5.05076"
       inkscape:path-effect="#path-effect848"
       inkscape:connector-curvature="0"
       id="path846"
       d="m 355.5737,149.50258 c -4.50262,-24.39526 -3.45869,-49.797592 3.03045,-73.741139 3.40975,-12.581252 8.38114,-24.897534 16.16244,-35.355339 9.85461,-13.244262 24.10286,-23.106546 39.88805,-27.938857 15.7852,-4.8323111 33.02182,-4.6542754 48.79107,0.229819 15.76925,4.884093 30.02611,14.419514 40.78215,26.942743 10.75604,12.523229 18.00786,27.977558 21.05146,44.202854 2.80116,14.932867 2.09211,30.263719 2.02031,45.456869 -0.008,1.68357 -0.008,3.36719 0,5.05076"
       style="fill:none;stroke:#097768;stroke-width:9.12983;stroke-linecap:butt;stroke-linejoin:miter;stroke-miterlimit:4;stroke-dasharray:none;stroke-opacity:1" />
    <path
       inkscape:original-d="m 353.55339,128.28937 c 25.92825,-5.04976 51.8555,-10.10052 77.78175,-15.15228 25.92625,-5.05177 61.28358,3.36817 91.92388,5.05076 30.64029,1.68259 4.04161,1.34787 6.06091,2.0203"
       inkscape:path-effect="#path-effect864"
       inkscape:connector-curvature="0"
       id="path862"
       d="m 353.55339,128.28937 c 25.4747,-7.08681 51.50969,-12.15856 77.78175,-15.15228 30.71252,-3.49972 62.38997,-4.07367 91.92388,5.05076 2.03486,0.62866 4.05582,1.30232 6.06091,2.0203"
       style="fill:none;stroke:#097768;stroke-width:8.69291;stroke-linecap:butt;stroke-linejoin:miter;stroke-miterlimit:4;stroke-dasharray:none;stroke-opacity:1" />
    <path
       inkscape:original-d="m 488.91383,195.96959 c 10.43724,-6.73535 -14.81457,-6.73335 -22.22335,-10.10152 -7.40879,-3.36818 -16.83488,8.75565 -25.25382,13.13198 -8.41894,4.37633 10.77596,11.4494 16.16244,17.17259 5.38648,5.7232 20.87749,-13.4677 31.31473,-20.20305 z"
       inkscape:path-effect="#path-effect868"
       inkscape:connector-curvature="0"
       id="path866"
       d="m 488.91383,195.96959 c -0.88569,-1.95581 -2.27971,-3.66291 -3.94133,-5.02257 -1.66162,-1.35966 -3.58641,-2.37897 -5.60439,-3.11205 -4.03596,-1.46616 -8.38725,-1.79022 -12.67763,-1.9669 -5.24982,-0.21619 -10.66072,-0.20519 -15.54909,1.72123 -2.44419,0.96321 -4.72203,2.41017 -6.47781,4.36441 -1.75579,1.95424 -2.96882,4.43192 -3.22692,7.04634 -0.20971,2.12426 0.21235,4.29133 1.09358,6.23553 0.88122,1.94419 2.21148,3.66938 3.78619,5.11048 3.14941,2.88219 7.19475,4.59583 11.28267,5.82658 3.75703,1.13113 7.64777,1.90284 11.57133,1.92385 3.92356,0.021 7.88998,-0.73062 11.38504,-2.51368 3.49505,-1.78307 6.49464,-4.63856 8.13714,-8.20184 1.64249,-3.56328 1.83979,-7.83717 0.22122,-11.41138 z"
       style="fill:none;stroke:#097768;stroke-width:3.77953;stroke-linecap:butt;stroke-linejoin:miter;stroke-miterlimit:4;stroke-dasharray:none;stroke-opacity:1" />
    <path
       inkscape:original-d="m 413.15239,201.02036 c 4.37833,-2.69274 8.75566,-5.38648 13.13198,-8.08122 4.37633,-2.69475 8.75566,3.36817 13.13199,5.05076"
       inkscape:path-effect="#path-effect876"
       inkscape:connector-curvature="0"
       id="path874"
       d="m 413.15239,201.02036 c 2.73438,-4.59188 7.80056,-7.70953 13.13198,-8.08122 4.83072,-0.33679 9.77198,1.5637 13.13199,5.05076"
       style="fill:none;stroke:#097768;stroke-width:3.77953;stroke-linecap:round;stroke-linejoin:miter;stroke-miterlimit:4;stroke-dasharray:none;stroke-opacity:1" />
    <path
       inkscape:connector-curvature="0"
       id="path880"
       d="m 371.73614,206.07112 -17.1726,-9.09137"
       style="fill:none;stroke:#097768;stroke-width:3.77953;stroke-linecap:butt;stroke-linejoin:miter;stroke-miterlimit:4;stroke-dasharray:none;stroke-opacity:1" />
    <path
       inkscape:connector-curvature="0"
       id="path882"
       d="m 424.26407,197.9899 -10.10153,41.41625 1.01016,1.01016"
       style="fill:none;stroke:#097768;stroke-width:8.69291;stroke-linecap:round;stroke-linejoin:round;stroke-miterlimit:4;stroke-dasharray:none;stroke-opacity:1" />
    <path
       inkscape:original-d="m 451.53819,233.34524 c -1.34587,3.03146 -2.69274,6.06191 -4.04061,9.09137 -1.34787,3.02946 -7.40679,0.001 -11.11168,0 -3.70489,-0.001 -6.05992,2.69474 -9.09137,4.04061 -3.03146,1.34587 -8.08022,-4.03961 -12.12183,-6.06091"
       inkscape:path-effect="#path-effect890"
       inkscape:connector-curvature="0"
       id="path888"
       d="m 451.53819,233.34524 c 0.74198,1.7097 0.73312,3.72988 -0.0238,5.43301 -0.75695,1.70313 -2.25053,3.06343 -4.01679,3.65836 -1.7678,0.59544 -3.6924,0.43579 -5.54306,0.20193 -1.85067,-0.23385 -3.73315,-0.53467 -5.56862,-0.20193 -1.63794,0.29694 -3.14188,1.0825 -4.59406,1.89626 -1.45217,0.81376 -2.90045,1.67417 -4.49731,2.14435 -2.3841,0.70198 -5.03086,0.46674 -7.25378,-0.64472 -2.22292,-1.11146 -3.99917,-3.08772 -4.86805,-5.41619"
       style="fill:none;stroke:#097768;stroke-width:8.69291;stroke-linecap:round;stroke-linejoin:miter;stroke-miterlimit:4;stroke-dasharray:none;stroke-opacity:1" />
    <path
       inkscape:original-d="m 458.60926,272.74119 c -5.04977,-1.00916 -10.10053,-2.69274 -15.15229,-4.04061 -5.05177,-1.34787 -9.42709,2.69474 -14.14214,4.04061 -4.71504,1.34587 -4.71304,-1.34587 -7.07107,-2.02031 -2.35802,-0.67443 -8.08022,4.04161 -12.12183,6.06092 -4.04161,2.0193 10e-4,0.67443 0,1.01015"
       inkscape:path-effect="#path-effect894"
       inkscape:connector-curvature="0"
       id="path892"
       d="m 458.60926,272.74119 c -3.9568,-3.74686 -9.85522,-5.31977 -15.15229,-4.04061 -2.40371,0.58046 -4.63894,1.69256 -6.93487,2.61094 -2.29594,0.91839 -4.7449,1.65664 -7.20727,1.42967 -2.44646,-0.22551 -4.69885,-1.38111 -7.07107,-2.02031 -2.49052,-0.67107 -5.21679,-0.75107 -7.59117,0.25655 -1.1872,0.50381 -2.26759,1.27662 -3.0781,2.27978 -0.81052,1.00315 -1.34355,2.23953 -1.45256,3.52459 -0.0285,0.33591 -0.0285,0.67424 0,1.01015"
       style="fill:none;stroke:#097768;stroke-width:10.5827;stroke-linecap:round;stroke-linejoin:miter;stroke-miterlimit:4;stroke-dasharray:none;stroke-opacity:1" />
    <path
       inkscape:original-d="m 488.91383,262.63966 c -6.05991,1.34787 -12.79426,3.36818 -19.1929,5.05076 -6.39863,1.68259 -11.44739,-6.73335 -17.17259,-10.10152 -5.7252,-3.36818 -20.87549,0.67443 -31.31473,1.01015 -10.43924,0.33572 -12.79426,4.71505 -19.1929,7.07107 -6.39863,2.35602 -12.79426,-3.36618 -19.1929,-5.05076"
       inkscape:path-effect="#path-effect904"
       inkscape:connector-curvature="0"
       id="path902"
       d="m 488.91383,262.63966 c -2.3865,2.5423 -5.49859,4.39579 -8.87071,5.28319 -3.37213,0.8874 -6.99343,0.80586 -10.32219,-0.23243 -3.18044,-0.99202 -6.03249,-2.81169 -8.76702,-4.71475 -2.73453,-1.90306 -5.41363,-3.92132 -8.40557,-5.38677 -4.83372,-2.36755 -10.33795,-3.19426 -15.70938,-2.85071 -5.37142,0.34355 -10.62453,1.82085 -15.60535,3.86086 -6.33122,2.5931 -12.41489,6.13988 -19.1929,7.07107 -6.72645,0.92411 -13.79263,-0.93541 -19.1929,-5.05076"
       style="fill:none;stroke:#097768;stroke-width:13.22830009;stroke-linecap:round;stroke-linejoin:miter;stroke-miterlimit:4;stroke-dasharray:none;stroke-opacity:1" />
    <path
       inkscape:original-d="m 415.1727,295.9747 c 6.73535,0.33771 12.79626,0.67443 19.19289,1.01015 6.39664,0.33572 11.4494,-3.36618 17.1726,-5.05076"
       inkscape:path-effect="#path-effect916"
       inkscape:connector-curvature="0"
       id="path914"
       d="m 415.1727,295.9747 c 6.27283,1.45536 12.80194,1.799 19.19289,1.01015 5.94809,-0.73419 11.77416,-2.44773 17.1726,-5.05076"
       style="fill:none;stroke:#097768;stroke-width:3.77953;stroke-linecap:round;stroke-linejoin:miter;stroke-miterlimit:4;stroke-dasharray:none;stroke-opacity:1" />
    <path
       inkscape:original-d="m 354.56354,196.97975 c 1.01115,-6.39663 3.36818,-12.79427 5.05077,-19.1929 1.68258,-6.39864 14.81657,-10.10053 22.22335,-15.15229 7.40679,-5.05176 30.30558,-5.38648 45.45687,-8.08122 15.15128,-2.69474 46.46801,2.0213 69.70052,3.03046 23.23251,1.00915 24.24466,6.73535 36.36549,10.10152 12.12083,3.36618 9.42909,6.73535 14.14214,10.10153 4.71304,3.36617 4.04161,12.79627 6.06091,19.1929"
       inkscape:path-effect="#path-effect928"
       inkscape:connector-curvature="0"
       id="path926"
       d="m 354.56354,196.97975 c -0.64203,-6.7239 1.18221,-13.656 5.05077,-19.1929 5.21751,-7.46758 13.66551,-12.02971 22.22335,-15.15229 14.51004,-5.29442 30.03723,-7.18304 45.45687,-8.08122 23.25961,-1.35485 46.67597,-0.53541 69.70052,3.03046 12.47642,1.93226 24.94982,4.70918 36.36549,10.10152 5.28021,2.49417 10.40001,5.61845 14.14214,10.10153 4.41002,5.28321 6.63694,12.33515 6.06091,19.1929"
       style="fill:none;stroke:#097768;stroke-width:8.69291;stroke-linecap:butt;stroke-linejoin:miter;stroke-miterlimit:4;stroke-dasharray:none;stroke-opacity:1" />
    <path
       inkscape:original-d="m 382.84781,303.04576 c 2.02131,4.71505 5.38848,10.77596 8.08123,16.16244 2.69274,5.38648 4.71504,15.49001 7.07106,23.23351 2.35603,7.74351 0.001,8.75566 0,13.13199 -10e-4,4.37632 0.001,1.34787 0,2.0203"
       inkscape:path-effect="#path-effect932"
       inkscape:connector-curvature="0"
       id="path930"
       d="m 382.84781,303.04576 c 2.89324,5.28461 5.58948,10.67708 8.08123,16.16244 3.36505,7.40785 6.39141,15.12562 7.07106,23.23351 0.36583,4.36421 0.0431,8.75268 0,13.13199 -0.007,0.67341 -0.007,1.34689 0,2.0203"
       style="fill:none;stroke:#097768;stroke-width:7.55906;stroke-linecap:round;stroke-linejoin:miter;stroke-miterlimit:4;stroke-dasharray:none;stroke-opacity:1" />
    <path
       inkscape:connector-curvature="0"
       id="path934"
       d="m 532.35039,248.49753 -5.05076,54.54823 v 0"
       style="fill:none;stroke:#097768;stroke-width:7.55906;stroke-linecap:round;stroke-linejoin:miter;stroke-miterlimit:4;stroke-dasharray:none;stroke-opacity:1" />
    <path
       inkscape:connector-curvature="0"
       id="path936"
       d="m 398.0001,357.594 8.08122,12.12183"
       style="fill:none;stroke:#097768;stroke-width:6.4252;stroke-linecap:butt;stroke-linejoin:miter;stroke-miterlimit:4;stroke-dasharray:none;stroke-opacity:1" />
    <path
       inkscape:connector-curvature="0"
       id="path938"
       d="M 406.08132,369.71583 537.40115,301.02546"
       style="fill:none;stroke:#097768;stroke-width:8.69291;stroke-linecap:round;stroke-linejoin:round;stroke-miterlimit:4;stroke-dasharray:none;stroke-opacity:1" />
    <path
       inkscape:connector-curvature="0"
       id="path940"
       d="m 398.0001,357.594 -23.23351,32.32488 v 1.01016"
       style="fill:none;stroke:#097768;stroke-width:8.69291;stroke-linecap:round;stroke-linejoin:miter;stroke-miterlimit:4;stroke-dasharray:none;stroke-opacity:1" />
    <path
       inkscape:connector-curvature="0"
       id="path942"
       d="m 537.40115,301.02546 10.10153,24.24366"
       style="fill:none;stroke:#097768;stroke-width:8.69291;stroke-linecap:round;stroke-linejoin:miter;stroke-miterlimit:4;stroke-dasharray:none;stroke-opacity:1" />
    <path
       inkscape:original-d="m 547.50268,325.26912 c -10.43724,9.09237 -21.54892,17.51031 -32.32488,26.26397 -10.77596,8.75365 -63.97533,32.32588 -95.96449,48.48732"
       inkscape:path-effect="#path-effect950"
       inkscape:connector-curvature="0"
       id="path948"
       d="m 547.50268,325.26912 c -10.23918,9.38789 -21.03978,18.16338 -32.32488,26.26397 -29.23162,20.98284 -61.73118,37.40366 -95.96449,48.48732"
       style="fill:none;stroke:#097768;stroke-width:8.69291;stroke-linecap:round;stroke-linejoin:miter;stroke-miterlimit:4;stroke-dasharray:none;stroke-opacity:1" />
    <path
       inkscape:connector-curvature="0"
       id="path952"
       d="m 419.21331,400.02041 -13.13199,-30.30458 v 0"
       style="fill:none;stroke:#097768;stroke-width:8.69291;stroke-linecap:round;stroke-linejoin:miter;stroke-miterlimit:4;stroke-dasharray:none;stroke-opacity:1" />
    <path
       inkscape:connector-curvature="0"
       id="path954"
       d="m 398.0001,357.594 2.02031,41.41626"
       style="fill:none;stroke:#097768;stroke-width:8.69291;stroke-linecap:round;stroke-linejoin:round;stroke-miterlimit:4;stroke-dasharray:none;stroke-opacity:1" />
    <path
       inkscape:connector-curvature="0"
       id="path958"
       d="m 400.02041,399.01026 19.1929,1.01015"
       style="fill:none;stroke:#097768;stroke-width:8.69291;stroke-linecap:round;stroke-linejoin:miter;stroke-miterlimit:4;stroke-dasharray:none;stroke-opacity:1" />
    <path
       inkscape:connector-curvature="0"
       id="path960"
       d="m 445.47727,183.84776 20.20305,-8.08122"
       style="fill:none;stroke:#097768;stroke-width:6.80315018;stroke-linecap:round;stroke-linejoin:miter;stroke-miterlimit:4;stroke-dasharray:none;stroke-opacity:1" />
    <path
       inkscape:original-d="m 465.68032,175.76654 c 3.70489,-0.67243 7.40879,-1.34587 11.11168,-2.0203 3.7029,-0.67444 7.40879,4.04161 11.11168,6.06091"
       inkscape:path-effect="#path-effect966"
       inkscape:connector-curvature="0"
       id="path964"
       d="m 465.68032,175.76654 c 3.36184,-1.83373 7.31952,-2.55331 11.11168,-2.0203 4.26947,0.60009 8.29565,2.79619 11.11168,6.06091"
       style="fill:none;stroke:#097768;stroke-width:6.80315018;stroke-linecap:round;stroke-linejoin:miter;stroke-miterlimit:4;stroke-dasharray:none;stroke-opacity:1" />
    <path
       inkscape:original-d="m 390.92904,178.797 c -0.67244,0.001 -1.34587,0.001 -2.02031,0 -0.67444,-0.001 -8.75366,2.02131 -13.13198,3.03046"
       inkscape:path-effect="#path-effect970"
       inkscape:connector-curvature="0"
       id="path968"
       d="m 390.92904,178.797 c -0.67324,-0.0198 -1.34707,-0.0198 -2.02031,0 -4.51972,0.13293 -9.01106,1.1694 -13.13198,3.03046"
       style="fill:none;stroke:#097768;stroke-width:6.80315018;stroke-linecap:round;stroke-linejoin:miter;stroke-miterlimit:4;stroke-dasharray:none;stroke-opacity:1" />
    <path
       inkscape:connector-curvature="0"
       id="path972"
       d="m 466.69048,243.44676 -14.14214,-21.2132"
       style="fill:none;stroke:#097768;stroke-width:3.77953;stroke-linecap:round;stroke-linejoin:miter;stroke-miterlimit:4;stroke-dasharray:none;stroke-opacity:1" />
    <path
       inkscape:original-d="m 534.3707,236.3757 c 2.69474,1.68458 5.38848,3.36817 8.08122,5.05076 2.69274,1.68259 10e-4,-6.05992 0,-9.09137 -10e-4,-3.03146 -0.67244,-8.08022 -1.01016,-12.12184 -0.33771,-4.04161 -3.36617,-2.0193 -5.05076,-3.03045 -1.68459,-1.01116 -3.36617,4.71504 -5.05076,7.07107"
       inkscape:path-effect="#path-effect976"
       inkscape:connector-curvature="0"
       id="path974"
       d="m 534.3707,236.3757 c -0.69715,1.05788 -0.94699,2.40062 -0.67699,3.63845 0.26999,1.23783 1.05629,2.35457 2.13065,3.02604 1.07436,0.67148 2.42273,0.88891 3.6537,0.58918 1.23097,-0.29972 2.32845,-1.11269 2.97386,-2.20291 0.78839,-1.33174 0.88285,-2.96697 0.71491,-4.50543 -0.16794,-1.53847 -0.57539,-3.04464 -0.71491,-4.58594 -0.18525,-2.04645 0.10544,-4.10254 0.16783,-6.15641 0.0624,-2.05387 -0.12984,-4.19804 -1.17799,-5.96543 -0.52372,-0.8831 -1.25395,-1.647 -2.12905,-2.18399 -0.87509,-0.53698 -1.895,-0.84316 -2.92171,-0.84646 -1.69361,-0.005 -3.36763,0.85264 -4.35202,2.23079 -0.98439,1.37816 -1.25317,3.23998 -0.69874,4.84028"
       style="fill:none;stroke:#097768;stroke-width:3.77953;stroke-linecap:round;stroke-linejoin:miter;stroke-miterlimit:4;stroke-dasharray:none;stroke-opacity:1" />
    <path
       transform="matrix(1,0,0,0.82978723,0,36.107581)"
       inkscape:original-d="m 522.24887,164.65486 c 10e-4,4.04162 1.34787,8.75566 2.0203,13.13199 0.67244,4.37633 -2.69274,8.75565 -4.04061,13.13198 -1.34787,4.37633 4.71505,14.14313 7.07107,21.2132"
       inkscape:path-effect="#path-effect980"
       inkscape:connector-curvature="0"
       id="path978"
       d="m 522.24887,164.65486 c 2.09451,3.99457 2.81728,8.69257 2.0203,13.13199 -0.81021,4.51313 -3.10975,8.64218 -4.04061,13.13198 -0.79265,3.82317 -0.55588,7.85473 0.67882,11.55884 1.2347,3.70411 3.46423,7.07141 6.39225,9.65436"
       style="fill:none;stroke:#097768;stroke-width:7.46837997;stroke-linecap:round;stroke-linejoin:miter;stroke-miterlimit:4;stroke-dasharray:none;stroke-opacity:1" />
    <path
       style="display:inline;fill:none;stroke:#097768;stroke-width:3.77953;stroke-linecap:round;stroke-linejoin:miter;stroke-miterlimit:4;stroke-dasharray:none;stroke-opacity:1"
       d="m 488.91383,195.96959 47.47716,-7.07106 v 0"
       id="path878-5"
       inkscape:connector-curvature="0" />
    <path
       inkscape:original-d="m 450.53572,199.46429 c 1.90576,-1.60615 3.81052,-3.21329 5.71428,-4.82143 1.90376,-1.60815 5.95338,-1.66567 8.92857,-2.5 2.97519,-0.83434 8.33434,2.02481 12.5,3.03571 4.16567,1.01091 2.38195,1.78672 3.57143,2.67857"
       inkscape:path-effect="#path-effect1018"
       inkscape:connector-curvature="0"
       id="path1016"
       d="m 450.53572,199.46429 c 1.56418,-1.96087 3.51815,-3.60954 5.71428,-4.82143 2.7289,-1.50589 5.81644,-2.32898 8.92857,-2.5 4.34475,-0.23876 8.76411,0.80479 12.5,3.03571 1.27999,0.76436 2.47925,1.6638 3.57143,2.67857"
       style="fill:none;stroke:#097768;stroke-width:3.02362;stroke-linecap:round;stroke-linejoin:miter;stroke-miterlimit:4;stroke-dasharray:none;stroke-opacity:1" />
    <path
       inkscape:original-d="m 450.53572,199.46429 c 2.38195,1.66767 4.64385,3.21528 6.96428,4.82142 2.32043,1.60615 7.7391,0.12005 11.60714,0.17858 3.86805,0.0585 8.09624,-4.40377 12.14286,-6.60715"
       inkscape:path-effect="#path-effect1022"
       inkscape:connector-curvature="0"
       id="path1020"
       d="m 450.53572,199.46429 c 1.82791,2.19758 4.26392,3.88405 6.96428,4.82142 3.70808,1.28717 7.80294,1.14543 11.60714,0.17858 4.51267,-1.14691 8.72888,-3.44103 12.14286,-6.60715"
       style="fill:none;stroke:#097768;stroke-width:3.77953;stroke-linecap:round;stroke-linejoin:miter;stroke-miterlimit:4;stroke-dasharray:none;stroke-opacity:1" />
    <path
       transform="translate(-0.17857143,2.6785714)"
       inkscape:original-d="m 380.53572,203.75 c 0.95338,-1.18948 2.0248,-2.499 3.03571,-3.75 1.0109,-1.251 4.52481,-2.85614 6.78571,-4.28571 2.26091,-1.42958 7.02481,0.001 10.53572,0 3.5109,-0.001 4.52481,2.73909 6.78571,4.10714"
       inkscape:path-effect="#path-effect1028"
       inkscape:connector-curvature="0"
       id="path1026"
       d="m 380.53572,203.75 c 0.86489,-1.36002 1.88558,-2.62088 3.03571,-3.75 1.92511,-1.88995 4.23215,-3.41548 6.78571,-4.28571 3.38254,-1.15274 7.13983,-1.1128 10.53572,0 2.53432,0.83047 4.87463,2.24697 6.78571,4.10714"
       style="fill:none;stroke:#097768;stroke-width:3.02362;stroke-linecap:round;stroke-linejoin:miter;stroke-miterlimit:4;stroke-dasharray:none;stroke-opacity:1" />
    <path
       transform="translate(-0.17857143,2.6785714)"
       inkscape:original-d="m 407.67857,199.82143 c -2.61805,2.02481 -5.23709,4.04862 -7.85714,6.07143 -2.62005,2.02281 -6.90376,0.95338 -10.35714,1.42857 -3.45338,0.47519 -5.95138,-2.37995 -8.92857,-3.57143"
       inkscape:path-effect="#path-effect1032"
       inkscape:connector-curvature="0"
       id="path1030"
       d="m 407.67857,199.82143 c -2.05116,2.64283 -4.78235,4.7533 -7.85714,6.07143 -3.24198,1.38981 -6.86058,1.89335 -10.35714,1.42857 -3.21041,-0.42674 -6.30949,-1.66637 -8.92857,-3.57143"
       style="fill:none;stroke:#097768;stroke-width:3.77953;stroke-linecap:round;stroke-linejoin:miter;stroke-miterlimit:4;stroke-dasharray:none;stroke-opacity:1" />
    <path
       style="display:inline;fill:none;stroke:#097768;stroke-width:8.69291;stroke-linecap:round;stroke-linejoin:miter;stroke-miterlimit:4;stroke-dasharray:none;stroke-opacity:1"
       d="m 400.02041,399.01026 -25.25382,-8.08122"
       id="path956"
       inkscape:connector-curvature="0" />
    <path
       style="display:inline;fill:none;stroke:#097768;stroke-width:8.69291;stroke-linecap:round;stroke-linejoin:miter;stroke-miterlimit:4;stroke-dasharray:none;stroke-opacity:1"
       d="m 354.56354,196.97975 c 1.15076,9.74958 2.16105,19.51574 3.03046,29.29442 1.20834,13.59086 2.16677,27.32913 6.06092,40.4061 3.42553,11.5033 9.15198,22.38556 17.17259,31.31473 6.79028,7.55948 15.15118,13.64617 24.24366,18.18275 8.20055,4.09156 17.11202,6.96302 26.26314,7.46 9.15111,0.49698 18.56134,-1.48531 26.26479,-6.44985 4.24736,-2.73724 7.90272,-6.31078 12.12183,-9.09137 8.79799,-5.79828 19.47272,-7.81785 29.30271,-11.61206 4.91499,-1.89711 9.70118,-4.28808 13.72082,-7.69376 4.01964,-3.40568 7.24763,-7.90027 8.49425,-13.01907 1.31693,-5.40751 0.37507,-11.10275 0.99804,-16.63333 0.31148,-2.76529 1.03735,-5.53245 2.5362,-7.87709 1.49884,-2.34464 3.83928,-4.23461 6.56729,-4.784 0.33426,-0.0673 0.68855,-0.11327 1.01015,0 0.20744,0.0731 0.3912,0.2118 0.51829,0.3913 0.12709,0.1795 0.1969,0.39892 0.1969,0.61886 0,0.21993 -0.0698,0.43935 -0.1969,0.61885 -0.12709,0.1795 -0.31085,0.31823 -0.51829,0.3913"
       id="path854"
       inkscape:connector-curvature="0"
       inkscape:path-effect="#path-effect856-3"
       inkscape:original-d="m 354.56354,196.97975 c 1.01115,9.76581 2.02131,19.53061 3.03046,29.29442 1.00915,9.76381 4.04161,26.9384 6.06092,40.4061 2.0193,13.4677 11.44939,20.87749 17.17259,31.31473 5.7232,10.43724 16.16344,12.12283 24.24366,18.18275 8.08022,6.05991 35.01962,0.67443 52.52793,1.01015 17.50831,0.33572 8.08222,-6.05992 12.12183,-9.09137 4.03961,-3.03146 34.34619,-21.54892 51.51778,-32.32489 17.1716,-10.77596 6.73535,-19.52861 10.10153,-29.29442 3.36617,-9.76581 0.67443,0.001 1.01015,0 0.33572,-10e-4 0.001,1.34787 0,2.02031" />
    <path
       style="display:inline;fill:none;stroke:#097768;stroke-width:7.55906;stroke-linecap:round;stroke-linejoin:miter;stroke-miterlimit:4;stroke-dasharray:none;stroke-opacity:1"
       d="m 527.29963,212.13203 c -0.28454,-6.38391 2.37385,-12.84 7.07107,-17.17259 1.42422,-1.31367 3.031,-2.4429 4.80153,-3.22989 1.77053,-0.78699 3.70895,-1.22553 5.64537,-1.15909 1.93642,0.0664 3.8684,0.65041 5.45357,1.76458 1.58517,1.11417 2.80555,2.76932 3.29242,4.64471 0.48009,1.84926 0.24431,3.81612 -0.24658,5.66254 -0.49088,1.84642 -1.22978,3.61764 -1.77372,5.44913 -2.41403,8.12825 -0.86811,16.81923 0,25.25382 0.44864,4.35898 0.6928,8.87853 -0.75653,13.01392 -0.72467,2.0677 -1.87896,4.00636 -3.48456,5.49718 -1.6056,1.49083 -3.67753,2.51395 -5.86044,2.7021 -1.95936,0.16888 -3.97109,-0.34697 -5.60742,-1.43785 -1.63633,-1.09089 -2.88624,-2.74947 -3.48395,-4.62306"
       id="path858"
       inkscape:connector-curvature="0"
       inkscape:path-effect="#path-effect860-0"
       inkscape:original-d="m 527.29963,212.13203 c 2.35802,-5.72319 4.71504,-11.44739 7.07107,-17.17259 2.35602,-5.7252 12.79626,1.34787 19.19289,2.02031 6.39663,0.67244 -1.34587,7.40878 -2.0203,11.11167 -0.67443,3.7029 0.001,16.83688 0,25.25382 -10e-4,8.41694 -6.73335,14.14313 -10.10153,21.2132 -3.36817,7.07007 -6.05991,-4.03961 -9.09137,-6.06091" />
    <path
       style="display:inline;fill:none;stroke:#097768;stroke-width:8.69291;stroke-linecap:butt;stroke-linejoin:miter;stroke-miterlimit:4;stroke-dasharray:none;stroke-opacity:1"
       d="m 553.56359,196.97975 c 6.07965,-1.81238 11.47532,-5.83184 14.95203,-11.13839 3.4767,-5.30655 5.00708,-11.85844 4.24087,-18.15604 -0.60759,-4.99384 -2.61945,-9.77796 -5.56159,-13.85857 -2.94214,-4.08061 -6.79621,-7.46826 -11.09246,-10.08548 -8.5925,-5.23442 -18.76154,-7.34046 -28.80281,-7.97542 -27.91309,-1.76508 -55.2471,7.10106 -82.83251,11.71642 -29.3195,4.90549 -59.31741,5.01311 -88.89342,2.02031 -6.44633,-0.6523 -13.0346,-1.44299 -19.34051,0.0457 -3.15295,0.74435 -6.19945,2.07181 -8.71498,4.1132 -2.51553,2.0414 -4.47759,4.82415 -5.27955,7.96294 -0.78697,3.08012 -0.43102,6.39378 0.72137,9.35663 1.15239,2.96284 3.0707,5.58913 5.33955,7.81596 3.64334,3.57586 8.14237,6.13184 12.59421,8.63019 4.45185,2.49835 8.96538,5.01913 12.6596,8.5424 0.34463,0.32868 0.68147,0.66553 1.01015,1.01016"
       id="path850"
       inkscape:connector-curvature="0"
       inkscape:path-effect="#path-effect852-0"
       inkscape:original-d="m 553.56359,196.97975 c 6.39864,-9.76381 12.79627,-19.52862 19.1929,-29.29443 6.39664,-9.76581 -30.30357,-21.27864 -45.45686,-31.91947 -15.15329,-10.64082 -55.22067,7.81195 -82.83251,11.71642 -27.61184,3.90447 -59.26128,1.34787 -88.89342,2.02031 -29.63214,0.67244 -22.22236,8.08222 -33.33504,12.12183 -11.11268,4.03961 4.04161,11.44939 6.06092,17.17259 2.0193,5.7232 16.83687,11.4494 25.25381,17.17259 8.41694,5.7232 0.67444,0.67444 1.01015,1.01016" />
    <path
       style="display:inline;fill:none;stroke:#097768;stroke-width:6.80315018;stroke-linecap:round;stroke-linejoin:miter;stroke-miterlimit:4;stroke-dasharray:none;stroke-opacity:1"
       d="M 411.13209,184.85792 390.92904,178.797 h -2.02031"
       id="path962"
       inkscape:connector-curvature="0" />
    <path
       style="display:inline;fill:none;stroke:#097768;stroke-width:3.77953;stroke-linecap:butt;stroke-linejoin:miter;stroke-miterlimit:4;stroke-dasharray:none;stroke-opacity:1"
       d="m 413.15239,201.02036 c -0.88362,-2.59103 -2.63085,-4.84468 -4.78368,-6.5357 -2.15283,-1.69102 -4.69888,-2.83885 -7.33815,-3.56583 -4.43803,-1.22245 -9.20501,-1.26979 -13.64523,-0.0553 -4.44021,1.21449 -8.53762,3.69712 -11.60858,7.12636 -1.94682,2.17395 -3.4905,4.74162 -4.2734,7.55289 -0.7829,2.81127 -0.77772,5.87184 0.23279,8.60955 0.78522,2.12735 2.15923,4.01998 3.87045,5.50792 1.71121,1.48794 3.75281,2.57709 5.9108,3.27374 4.31597,1.39329 9.0079,1.21333 13.45226,0.30971 5.31699,-1.08105 10.57371,-3.28247 14.29586,-7.23022 1.86107,-1.97387 3.30299,-4.36506 4.03306,-6.97786 0.73006,-2.61281 0.72948,-5.44759 -0.14618,-8.01527 z"
       id="path870"
       inkscape:connector-curvature="0"
       inkscape:path-effect="#path-effect872-5"
       inkscape:original-d="m 413.15239,201.02036 c 6.05992,-7.40879 -8.08022,-6.73335 -12.12183,-10.10153 -4.04161,-3.36817 -16.83488,4.71505 -25.25381,7.07107 -8.41894,2.35602 -2.69274,10.77596 -4.04061,16.16244 -1.34787,5.38648 15.49,6.06191 23.23351,9.09137 7.7435,3.02946 12.12283,-14.81457 18.18274,-22.22335 z" />
    <ellipse
       ry="1.8911536"
       rx="2.6476152"
       cy="195.09142"
       cx="464.08911"
       id="path1147"
       style="fill:#ffffff;stroke:#097768;stroke-width:3.77953;stroke-miterlimit:4;stroke-dasharray:none;stroke-opacity:1" />
    <ellipse
       ry="1.3616306"
       rx="2.4206767"
       cy="200.46228"
       cx="395.62933"
       id="path1153"
       style="fill:#ffffff;stroke:#097768;stroke-width:3.77953;stroke-miterlimit:4;stroke-dasharray:none;stroke-opacity:1" />
    <rect
       y="-1.795496"
       x="306.13211"
       height="421.94162"
       width="284.58615"
       id="rect914"
       style="font-variation-settings:normal;opacity:1;vector-effect:none;fill:#229954;fill-opacity:0;fill-rule:evenodd;stroke-width:0.904965;stroke-linecap:butt;stroke-linejoin:miter;stroke-miterlimit:4;stroke-dasharray:none;stroke-dashoffset:0;stroke-opacity:1;stop-color:#000000;stop-opacity:1;stroke:none" />
  </g>
</svg>
